<svg width="40" height="40" viewBox="0 0 40 40" fill="none" xmlns="http://www.w3.org/2000/svg">
<path d="M33.75 5H28.75V3.75C28.75 3.41848 28.6183 3.10054 28.3839 2.86612C28.1495 2.6317 27.8315 2.5 27.5 2.5C27.1685 2.5 26.8505 2.6317 26.6161 2.86612C26.3817 3.10054 26.25 3.41848 26.25 3.75V5H13.75V3.75C13.75 3.41848 13.6183 3.10054 13.3839 2.86612C13.1495 2.6317 12.8315 2.5 12.5 2.5C12.1685 2.5 11.8505 2.6317 11.6161 2.86612C11.3817 3.10054 11.25 3.41848 11.25 3.75V5H6.25C5.25544 5 4.30161 5.39509 3.59835 6.09835C2.89509 6.80161 2.5 7.75544 2.5 8.75V33.75C2.5 34.7446 2.89509 35.6984 3.59835 36.4016C4.30161 37.1049 5.25544 37.5 6.25 37.5H33.75C34.7446 37.5 35.6984 37.1049 36.4016 36.4016C37.1049 35.6984 37.5 34.7446 37.5 33.75V8.75C37.5 7.75544 37.1049 6.80161 36.4016 6.09835C35.6984 5.39509 34.7446 5 33.75 5ZM6.25 7.5H33.75C34.0815 7.5 34.3995 7.6317 34.6339 7.86612C34.8683 8.10054 35 8.41848 35 8.75V12.5H5V8.75C5 8.41848 5.1317 8.10054 5.36612 7.86612C5.60054 7.6317 5.91848 7.5 6.25 7.5ZM33.75 35H6.25C5.91848 35 5.60054 34.8683 5.36612 34.6339C5.1317 34.3995 5 34.0815 5 33.75V15H35V33.75C35 34.0815 34.8683 34.3995 34.6339 34.6339C34.3995 34.8683 34.0815 35 33.75 35Z" fill="#0078B6"/>
<path d="M17.5003 28.7502C17.1688 28.7501 16.8509 28.6184 16.6165 28.3839L12.8665 24.6339C12.6388 24.3982 12.5128 24.0824 12.5157 23.7547C12.5185 23.427 12.65 23.1134 12.8817 22.8817C13.1135 22.6499 13.427 22.5185 13.7548 22.5156C14.0825 22.5128 14.3983 22.6388 14.634 22.8664L17.5665 25.7977L25.4415 19.0477C25.565 18.9336 25.7102 18.8456 25.8685 18.7889C26.0268 18.7323 26.1949 18.7081 26.3627 18.7179C26.5305 18.7278 26.6947 18.7713 26.8453 18.846C26.9959 18.9207 27.1299 19.0251 27.2392 19.1527C27.3486 19.2804 27.431 19.4289 27.4817 19.5892C27.5323 19.7495 27.5501 19.9184 27.534 20.0857C27.5179 20.253 27.4682 20.4154 27.3879 20.5631C27.3075 20.7108 27.1982 20.8407 27.0665 20.9452L18.3165 28.4452C18.0902 28.6421 17.8002 28.7504 17.5003 28.7502Z" fill="#0078B6"/>
</svg>
