<svg width="36" height="36" viewBox="0 0 36 36" fill="none" xmlns="http://www.w3.org/2000/svg">
<g clip-path="url(#clip0_219_11238)">
<path d="M24.1579 0C23.4093 0 23.402 1.12402 24.1622 1.1239C28.329 1.12329 32.1146 3.5353 33.8749 7.30921C35.6353 11.0831 35.0445 15.53 32.3655 18.7207C29.9586 21.5872 26.2594 22.9619 22.6142 22.4319L23.5019 21.7958C24.1285 21.3431 23.4733 20.4375 22.8492 20.8817L20.9102 22.2693C20.6541 22.4494 20.5943 22.804 20.7773 23.0581L22.1682 24.9972C22.6033 25.6193 23.5322 24.9527 23.0822 24.3413L22.5197 23.5569C26.5249 24.1146 30.586 22.5913 33.229 19.4436C36.1873 15.9202 36.8351 11.0012 34.8911 6.83348C32.846 2.4955 28.5901 0 24.1579 0ZM24.187 3.93201C19.8434 3.93201 16.3144 7.4779 16.3144 11.8345C16.3144 16.1911 19.8434 19.7359 24.187 19.7359C28.5307 19.7359 32.064 16.1911 32.064 11.8345C32.064 7.4779 28.5307 3.93201 24.187 3.93201ZM24.187 5.05811C27.9204 5.05811 30.9391 8.08364 30.9391 11.8345C30.9391 15.5853 27.9204 18.6108 24.187 18.6108C20.4537 18.6108 17.4405 15.5853 17.4405 11.8345C17.4405 8.08364 20.4537 5.05811 24.187 5.05811ZM24.1892 6.75109C23.9135 6.74948 23.6369 6.93478 23.6245 7.3125V7.90138C22.5225 8.14959 21.6854 9.10966 21.6854 10.2876C21.6854 11.117 22.104 11.591 22.6072 11.8367C23.1103 12.0824 23.6459 12.118 24.1309 12.1685C24.616 12.2191 25.0524 12.2841 25.2768 12.3937C25.4156 12.4708 25.5679 12.5455 25.5679 12.9287C25.5679 13.6469 24.9765 14.2465 24.21 14.2537C23.5666 14.2409 23.0618 13.8459 22.8478 13.1407C22.601 12.4321 21.569 12.7607 21.7733 13.4813C22.1352 14.6025 22.8884 15.1191 23.6245 15.3084V15.75C23.6646 16.5102 24.7385 16.4828 24.7494 15.75V15.3138C25.8537 15.0664 26.6928 14.0951 26.6929 12.9287C26.6929 12.1104 26.2743 11.6297 25.7711 11.384C25.268 11.1384 24.7324 11.1028 24.2474 11.0523C23.7623 11.0017 23.3259 10.9334 23.1015 10.8237C22.9346 10.7423 22.8104 10.6343 22.8104 10.2876C22.8104 9.55623 23.4019 8.98302 24.1683 8.97583C24.8579 9.00262 25.3055 9.36493 25.5306 10.0767C25.7708 10.7717 26.798 10.4762 26.6061 9.73938C26.3276 8.85856 25.7352 8.16356 24.7494 7.91346V7.3125C24.7388 6.94128 24.4648 6.75271 24.1892 6.75109ZM8.11433 23.6799C7.46929 23.9888 6.93558 24.2619 6.53233 24.4798C6.24055 23.9707 5.68865 23.6261 5.06569 23.6261H1.69076C0.743886 23.6261 0 24.3918 0 25.3169V33.1886C0 34.1138 0.750094 34.8794 1.69076 34.8794H5.06568C5.9908 34.8794 6.75227 34.1345 6.75095 33.1886L6.75208 33.0919C7.84927 32.9142 8.89528 32.6753 10.127 32.6283C10.8224 32.6283 12.1232 33.6138 12.968 34.2103C14.1718 35.0601 15.4684 36 16.8746 36C17.2979 36 17.722 35.8607 18.282 35.6517C21.3592 34.5013 27.8501 30.8291 31.6311 28.6172C32.4684 28.1542 32.8143 27.1592 32.5254 26.2903C32.4842 26.1661 32.4304 26.0436 32.3628 25.9266C31.8442 25.0283 30.7914 24.8096 29.7679 25.1587L21.8963 27.8844C21.7585 27.3015 21.388 26.7795 20.8317 26.4583C18.6317 25.2786 16.3507 24.0665 14.1006 23.1493C13.3929 22.8804 12.5588 22.5084 11.7432 22.5004C10.9276 22.4923 9.34781 23.0894 8.11433 23.6799ZM13.6822 24.1908C15.988 25.1699 18.0078 26.205 20.2672 27.434C20.8984 27.7984 20.9379 28.5276 20.6825 28.9699C20.3826 29.4893 19.6904 29.6984 19.1422 29.3819L15.7321 27.4131C15.0644 26.9612 14.446 28.0343 15.1719 28.3854L18.5808 30.3531C19.6519 30.9714 21.0364 30.6024 21.6548 29.5313C21.7358 29.391 21.8036 29.2405 21.8514 29.0918L30.136 26.2211C30.8595 25.9749 31.2872 26.2275 31.4389 26.5913C31.5907 26.9553 31.4664 27.4308 31.0874 27.6328C26.6878 30.1688 20.9618 33.4232 17.8887 34.5971C17.3768 34.788 16.963 34.8794 16.8747 34.8794C16.031 34.8794 14.8019 34.1308 13.6151 33.293C12.8102 32.7513 11.3569 31.5236 10.1271 31.5033C9.21701 31.5054 7.73651 31.7683 6.75214 31.9494V25.6465C6.75214 25.6465 7.69118 25.1241 8.59449 24.6973C9.76114 24.146 11.0413 23.6261 11.6833 23.6304C12.3254 23.6346 13.1247 23.9664 13.6822 24.1908ZM1.69084 24.7511H5.06576C5.39481 24.7511 5.62597 25.0175 5.62597 25.318C5.62597 28.225 5.6271 32.6301 5.6271 33.1886C5.6271 33.4946 5.37936 33.7543 5.06681 33.7544L1.69078 33.7555C1.38917 33.7556 1.12611 33.51 1.12607 33.1886L1.12498 25.3169C1.12493 24.9714 1.40278 24.7511 1.69084 24.7511ZM2.25113 32.0647C2.25112 32.3754 2.50298 32.6272 2.81361 32.6272C3.12424 32.6272 3.3772 32.3908 3.3772 32.0647C3.3772 31.7387 3.11766 31.5022 2.80768 31.5022C2.4977 31.5022 2.25114 31.7541 2.25113 32.0647Z" fill="#0078B6"/>
</g>
<defs>
<clipPath id="clip0_219_11238">
<rect width="36" height="36" fill="white"/>
</clipPath>
</defs>
</svg>
