<svg width="42" height="42" viewBox="0 0 42 42" fill="none" xmlns="http://www.w3.org/2000/svg">
<path d="M39.7492 23.1635C38.5279 22.4416 36.9759 22.5195 35.595 23.3703L27.1745 27.9576C27.147 27.9725 27.1208 27.9897 27.0961 28.009C26.8581 28.1852 26.5871 28.3115 26.2991 28.3804C26.7083 27.9283 26.927 27.4436 26.9488 26.9293C26.9927 25.8952 26.2586 24.9014 24.7674 23.9754C21.5811 21.9973 15.3476 20.6905 12.8848 22.0418C12.8778 22.0457 12.871 22.05 12.8642 22.0538L7.32302 25.4016L7.16568 25.129C6.86886 24.6162 6.38073 24.2421 5.8084 24.0887C5.23607 23.9354 4.62627 24.0153 4.11281 24.311L1.85408 25.6153C1.34167 25.9125 0.967903 26.4007 0.81459 26.9729C0.661278 27.5451 0.740912 28.1547 1.03606 28.6683L6.55242 38.2225C6.84903 38.7356 7.33717 39.11 7.90961 39.2634C8.48204 39.4167 9.09196 39.3366 9.60538 39.0406L11.864 37.7363C12.3748 37.4407 12.748 36.9552 12.9024 36.3856C13.0569 35.816 12.98 35.2084 12.6885 34.6953L13.2695 34.3199L13.296 34.3028C13.353 34.322 13.4257 34.3454 13.5149 34.3699L21.6138 36.5949C22.2709 36.8304 22.9629 36.9539 23.6609 36.9603C24.6647 36.9591 25.647 36.6695 26.491 36.1261L38.985 28.5921C40.88 27.7109 41.2226 26.4539 41.2573 25.781C41.3113 24.7478 40.7333 23.7448 39.7492 23.1635ZM11.2898 36.7418L9.03124 38.0461C8.78161 38.1898 8.48515 38.2287 8.20691 38.1541C7.92867 38.0796 7.69136 37.8977 7.54705 37.6484L2.03069 28.0938C1.88795 27.844 1.84966 27.5478 1.92413 27.2699C1.99861 26.9919 2.17983 26.7546 2.42838 26.6096L4.68703 25.3053C4.93661 25.1615 5.2331 25.1225 5.51137 25.1971C5.78964 25.2717 6.02693 25.4536 6.17114 25.703L11.6874 35.2579C11.8312 35.5074 11.87 35.8038 11.7955 36.082C11.7209 36.3602 11.5391 36.5975 11.2898 36.7418ZM40.111 25.7217C40.0737 26.442 39.4932 27.0956 38.4765 27.5621C38.4568 27.571 38.4376 27.5811 38.4191 27.5923L25.8938 35.1455L25.8844 35.1514C24.7024 35.8954 23.4235 36.0109 21.9737 35.5041C21.9615 35.4999 21.9491 35.4959 21.9365 35.4925L13.8191 33.2624C13.7283 33.2378 13.665 33.2154 13.609 33.1958C13.1886 33.0482 12.9927 33.1314 12.6463 33.3552L12.1139 33.6993L7.89748 26.396L13.4473 23.0429C14.34 22.56 16.1762 22.5054 18.3637 22.8973C20.5556 23.2901 22.7231 24.0577 24.1617 24.9509C25.2434 25.6225 25.8258 26.3077 25.8015 26.8804C25.7792 27.4077 25.2298 27.9645 24.214 28.4933C22.8918 28.3849 21.0545 28.0011 18.5022 27.1608C18.3576 27.1131 18.1999 27.1249 18.0639 27.1935C17.9279 27.2621 17.8247 27.3819 17.777 27.5266C17.7294 27.6713 17.7412 27.829 17.8098 27.965C17.8784 28.101 17.9982 28.2042 18.1429 28.2518C23.0723 29.8755 26.2201 30.1028 27.7628 28.9449L36.1582 24.3715C36.1678 24.3663 36.1771 24.3609 36.1863 24.3551C37.2009 23.7257 38.3143 23.6496 39.1651 24.1525C39.7798 24.5154 40.1423 25.1167 40.111 25.7217ZM5.7828 28.6766C5.82167 28.7419 5.84717 28.8143 5.85783 28.8896C5.86849 28.9649 5.8641 29.0415 5.8449 29.1151C5.8257 29.1887 5.79208 29.2577 5.74599 29.3182C5.6999 29.3787 5.64227 29.4294 5.57642 29.4674C5.51058 29.5054 5.43784 29.53 5.36242 29.5397C5.28701 29.5493 5.21042 29.544 5.13711 29.5238C5.06379 29.5037 4.99521 29.4691 4.93534 29.4223C4.87547 29.3754 4.8255 29.3171 4.78834 29.2508L3.98443 27.858C3.94556 27.7926 3.92006 27.7202 3.9094 27.6449C3.89874 27.5696 3.90313 27.493 3.92233 27.4194C3.94153 27.3459 3.97515 27.2768 4.02124 27.2164C4.06733 27.1559 4.12496 27.1052 4.19081 27.0672C4.25665 27.0291 4.32939 27.0046 4.40481 26.9949C4.48022 26.9852 4.55681 26.9906 4.63012 27.0107C4.70344 27.0309 4.77202 27.0654 4.83189 27.1123C4.89176 27.1591 4.94173 27.2174 4.97889 27.2838L5.7828 28.6766ZM28.4679 20.779C30.0238 20.779 31.5448 20.3176 32.8385 19.4532C34.1321 18.5888 35.1404 17.3602 35.7359 15.9227C36.3313 14.4852 36.4871 12.9035 36.1835 11.3775C35.88 9.85147 35.1308 8.44974 34.0306 7.34955C32.9304 6.24935 31.5286 5.50011 30.0026 5.19657C28.4766 4.89303 26.8949 5.04882 25.4574 5.64424C24.0199 6.23966 22.7913 7.24796 21.9269 8.54165C21.0625 9.83534 20.6011 11.3563 20.6011 12.9122C20.6035 14.9978 21.4331 16.9973 22.9078 18.4721C24.3825 19.9469 26.3823 20.7765 28.4679 20.779ZM28.4679 6.19385C29.7967 6.19385 31.0956 6.58788 32.2004 7.3261C33.3052 8.06432 34.1664 9.11359 34.6748 10.3412C35.1833 11.5688 35.3164 12.9197 35.0572 14.2229C34.7979 15.5261 34.1581 16.7232 33.2185 17.6628C32.2789 18.6024 31.0818 19.2422 29.7786 19.5015C28.4753 19.7607 27.1245 19.6277 25.8969 19.1192C24.6693 18.6107 23.62 17.7496 22.8818 16.6447C22.1436 15.5399 21.7495 14.241 21.7495 12.9122C21.7515 11.131 22.4598 9.42328 23.7193 8.16369C24.9787 6.9041 26.6867 6.196 28.4679 6.19385ZM25.7742 14.5852C25.7573 14.5117 25.7551 14.4356 25.7676 14.3612C25.7801 14.2868 25.8071 14.2156 25.8472 14.1517C25.8872 14.0878 25.9394 14.0324 26.0008 13.9887C26.0623 13.9449 26.1317 13.9137 26.2052 13.8968C26.2787 13.8799 26.3548 13.8777 26.4292 13.8902C26.5036 13.9027 26.5747 13.9298 26.6386 13.9698C26.7026 14.0098 26.758 14.062 26.8017 14.1234C26.8454 14.1849 26.8766 14.2543 26.8935 14.3278C27.1094 15.2669 28.093 15.5713 28.9721 15.4575C29.4589 15.3941 29.8445 15.1428 29.9782 14.8016C30.0785 14.5457 30.0217 14.2704 29.8186 14.0264C29.4761 13.6151 29.1146 13.5607 28.5674 13.4787C28.2132 13.4363 27.8645 13.3569 27.5268 13.2418C27.5208 13.2396 27.5149 13.2373 27.509 13.2349C26.596 12.865 26.0584 12.1488 26.0708 11.3192C26.0835 10.4725 26.6576 9.71562 27.5334 9.39085C27.6649 9.34207 27.7997 9.30236 27.9367 9.27199V8.6255C27.9367 8.47321 27.9972 8.32716 28.1048 8.21947C28.2125 8.11178 28.3586 8.05128 28.5109 8.05128C28.6632 8.05128 28.8092 8.11178 28.9169 8.21947C29.0246 8.32716 29.0851 8.47321 29.0851 8.6255V9.25821C29.9758 9.44155 30.7324 10.0821 31.1045 11.064C31.1573 11.2061 31.1517 11.3634 31.089 11.5015C31.0262 11.6396 30.9114 11.7472 30.7696 11.8009C30.6278 11.8547 30.4704 11.8501 30.332 11.7882C30.1935 11.7264 30.0851 11.6122 30.0305 11.4708C29.6768 10.5367 28.8334 10.1336 27.9327 10.4677C27.5112 10.6235 27.2245 10.973 27.219 11.3363C27.2139 11.6816 27.4668 11.9762 27.9314 12.167C28.1936 12.2525 28.4637 12.3115 28.7377 12.3431C29.3663 12.4372 30.0788 12.5441 30.7011 13.2915C31.1704 13.8552 31.2999 14.5763 31.0474 15.2207C30.7566 15.9629 30.0361 16.477 29.1202 16.5962C29.1086 16.5978 29.0967 16.5983 29.0851 16.5997V17.1978C29.0851 17.3501 29.0246 17.4961 28.9169 17.6038C28.8092 17.7115 28.6632 17.772 28.5109 17.772C28.3586 17.772 28.2125 17.7115 28.1048 17.6038C27.9972 17.4961 27.9367 17.3501 27.9367 17.1978V16.5605C26.9488 16.3688 26.0426 15.7529 25.7742 14.5852Z" fill="#0078B6" stroke="#0078B6" stroke-width="0.3"/>
</svg>
